<?xml version="1.0" encoding="UTF-8"?>
<svg xmlns="http://www.w3.org/2000/svg" xmlns:xlink="http://www.w3.org/1999/xlink" width="50pt" height="70pt" viewBox="0 0 50 70" version="1.1">
<g id="surface1">
<path style=" stroke:none;fill-rule:nonzero;fill:rgb(89.411765%,30.196078%,14.901961%);fill-opacity:1;" d="M 49.914062 13.722656 L 45.375 64.207031 L 24.96875 69.824219 L 4.621094 64.214844 L 0.0859375 13.722656 Z M 49.914062 13.722656 "/>
<path style=" stroke:none;fill-rule:nonzero;fill:rgb(94.509804%,39.607843%,16.078431%);fill-opacity:1;" d="M 25 65.53125 L 41.488281 60.992188 L 45.367188 17.851562 L 25 17.851562 Z M 25 65.53125 "/>
<path style=" stroke:none;fill-rule:nonzero;fill:rgb(92.156863%,92.156863%,92.156863%);fill-opacity:1;" d="M 16.175781 30.234375 L 25 30.234375 L 25 24.042969 L 9.359375 24.042969 L 9.507812 25.703125 L 11.042969 42.769531 L 25 42.769531 L 25 36.578125 L 16.746094 36.578125 Z M 17.582031 45.867188 L 11.320312 45.867188 L 12.195312 55.589844 L 24.972656 59.113281 L 25 59.105469 L 25 52.660156 L 24.972656 52.667969 L 18.027344 50.804688 Z M 17.582031 45.867188 "/>
<path style=" stroke:none;fill-rule:nonzero;fill:rgb(0%,0%,0%);fill-opacity:1;" d="M 4.722656 0 L 7.890625 0 L 7.890625 3.109375 L 10.792969 3.109375 L 10.792969 0 L 13.960938 0 L 13.960938 9.414062 L 10.792969 9.414062 L 10.792969 6.261719 L 7.894531 6.261719 L 7.894531 9.414062 L 4.722656 9.414062 Z M 18.132812 3.121094 L 15.339844 3.121094 L 15.339844 0 L 24.09375 0 L 24.09375 3.121094 L 21.300781 3.121094 L 21.300781 9.414062 L 18.132812 9.414062 Z M 25.484375 0 L 28.789062 0 L 30.820312 3.308594 L 32.851562 0 L 36.160156 0 L 36.160156 9.414062 L 33 9.414062 L 33 4.75 L 30.820312 8.097656 L 30.765625 8.097656 L 28.585938 4.75 L 28.585938 9.414062 L 25.484375 9.414062 Z M 37.734375 0 L 40.90625 0 L 40.90625 6.304688 L 45.363281 6.304688 L 45.363281 9.414062 L 37.734375 9.414062 Z M 37.734375 0 "/>
<path style=" stroke:none;fill-rule:nonzero;fill:rgb(100%,100%,100%);fill-opacity:1;" d="M 24.976562 42.769531 L 32.660156 42.769531 L 31.933594 50.800781 L 24.976562 52.667969 L 24.976562 59.109375 L 37.765625 55.589844 L 37.859375 54.542969 L 39.324219 38.242188 L 39.476562 36.578125 L 24.976562 36.578125 Z M 24.976562 30.222656 L 24.976562 30.234375 L 40.046875 30.234375 L 40.171875 28.84375 L 40.453125 25.703125 L 40.605469 24.042969 L 24.976562 24.042969 Z M 24.976562 30.222656 "/>
</g>
</svg>
