<?xml version="1.0" encoding="UTF-8"?>
<svg xmlns="http://www.w3.org/2000/svg" xmlns:xlink="http://www.w3.org/1999/xlink" width="50pt" height="70pt" viewBox="0 0 50 70" version="1.1">
<g id="surface1">
<path style=" stroke:none;fill-rule:nonzero;fill:rgb(14.901961%,30.196078%,89.411765%);fill-opacity:1;" d="M 24.96875 69.824219 L 4.621094 64.214844 L 0.0859375 13.722656 L 49.914062 13.722656 L 45.375 64.207031 Z M 24.96875 69.824219 "/>
<path style=" stroke:none;fill-rule:nonzero;fill:rgb(16.078431%,39.607843%,94.509804%);fill-opacity:1;" d="M 41.488281 60.992188 L 45.367188 17.851562 L 25 17.851562 L 25 65.53125 Z M 41.488281 60.992188 "/>
<path style=" stroke:none;fill-rule:nonzero;fill:rgb(92.156863%,92.156863%,92.156863%);fill-opacity:1;" d="M 10.480469 36.578125 L 11.042969 42.769531 L 25 42.769531 L 25 36.578125 Z M 9.359375 24.042969 L 9.925781 30.234375 L 25 30.234375 L 25 24.042969 Z M 25 52.660156 L 24.972656 52.667969 L 18.027344 50.804688 L 17.582031 45.867188 L 11.320312 45.867188 L 12.195312 55.589844 L 24.972656 59.113281 L 25 59.105469 Z M 25 52.660156 "/>
<path style=" stroke:none;fill-rule:nonzero;fill:rgb(0%,0%,0%);fill-opacity:1;" d="M 11.8125 0 L 19.367188 0 L 19.367188 3.136719 L 14.972656 3.136719 L 14.972656 6.273438 L 19.367188 6.273438 L 19.367188 9.410156 L 11.8125 9.410156 Z M 20.878906 0 L 28.433594 0 L 28.433594 2.726562 L 24.039062 2.726562 L 24.039062 3.273438 L 28.433594 3.273438 L 28.433594 9.546875 L 20.878906 9.546875 L 20.878906 6.683594 L 25.273438 6.683594 L 25.273438 6.136719 L 20.878906 6.136719 Z M 29.945312 0 L 37.5 0 L 37.5 2.726562 L 33.105469 2.726562 L 33.105469 3.273438 L 37.5 3.273438 L 37.5 9.546875 L 29.945312 9.546875 L 29.945312 6.683594 L 34.339844 6.683594 L 34.339844 6.136719 L 29.945312 6.136719 Z M 29.945312 0 "/>
<path style=" stroke:none;fill-rule:nonzero;fill:rgb(100%,100%,100%);fill-opacity:1;" d="M 39.476562 36.578125 L 40.605469 24.042969 L 24.976562 24.042969 L 24.976562 30.234375 L 33.769531 30.234375 L 33.199219 36.578125 L 24.976562 36.578125 L 24.976562 42.769531 L 32.660156 42.769531 L 31.933594 50.800781 L 24.976562 52.667969 L 24.976562 59.109375 L 37.765625 55.589844 L 37.859375 54.542969 L 39.324219 38.242188 Z M 39.476562 36.578125 "/>
</g>
</svg>
