<?xml version="1.0" encoding="UTF-8"?>
<svg xmlns="http://www.w3.org/2000/svg" xmlns:xlink="http://www.w3.org/1999/xlink" width="100pt" height="70pt" viewBox="0 0 100 70" version="1.1">
<g id="surface1">
<path style=" stroke:none;fill-rule:nonzero;fill:rgb(36.470588%,52.941176%,63.137255%);fill-opacity:1;" d="M 30.609375 56.53125 L 27.902344 56.53125 C 27.808594 51.917969 27.542969 47.578125 27.113281 43.515625 L 27.089844 43.515625 L 22.964844 56.53125 L 20.90625 56.53125 L 16.808594 43.515625 L 16.785156 43.515625 C 16.480469 47.417969 16.289062 51.757812 16.210938 56.53125 L 13.742188 56.53125 C 13.902344 50.722656 14.300781 45.28125 14.941406 40.199219 L 18.296875 40.199219 L 22.199219 52.199219 L 22.222656 52.199219 L 26.152344 40.199219 L 29.363281 40.199219 C 30.066406 46.148438 30.484375 51.59375 30.609375 56.53125 M 42.351562 44.480469 C 41.25 50.519531 39.792969 54.910156 37.988281 57.648438 C 36.582031 59.757812 35.042969 60.8125 33.367188 60.8125 C 32.917969 60.8125 32.367188 60.675781 31.710938 60.40625 L 31.710938 58.949219 C 32.03125 58.996094 32.40625 59.023438 32.839844 59.023438 C 33.621094 59.023438 34.25 58.804688 34.730469 58.371094 C 35.304688 57.839844 35.59375 57.242188 35.59375 56.578125 C 35.59375 56.125 35.371094 55.199219 34.921875 53.796875 L 31.953125 44.480469 L 34.613281 44.480469 L 36.742188 51.449219 C 37.222656 53.03125 37.421875 54.136719 37.34375 54.765625 C 38.507812 51.617188 39.324219 48.191406 39.789062 44.480469 Z M 42.351562 44.480469 "/>
<path style=" stroke:none;fill-rule:nonzero;fill:rgb(97.254902%,59.607843%,11.372549%);fill-opacity:1;" d="M 78.386719 56.53125 L 70.699219 56.53125 L 70.699219 40.199219 L 73.285156 40.199219 L 73.285156 54.519531 L 78.386719 54.519531 Z M 68.683594 56.925781 L 65.710938 55.445312 C 65.976562 55.226562 66.226562 54.988281 66.453125 54.714844 C 67.71875 53.214844 68.347656 51 68.347656 48.0625 C 68.347656 42.65625 66.25 39.953125 62.046875 39.953125 C 59.988281 39.953125 58.378906 40.640625 57.230469 42.011719 C 55.96875 43.511719 55.335938 45.722656 55.335938 48.644531 C 55.335938 51.515625 55.894531 53.621094 57.015625 54.957031 C 58.035156 56.167969 59.578125 56.773438 61.640625 56.773438 C 62.410156 56.773438 63.113281 56.675781 63.757812 56.484375 L 67.628906 58.761719 Z M 59.050781 53.261719 C 58.398438 52.199219 58.070312 50.492188 58.070312 48.136719 C 58.070312 44.023438 59.308594 41.964844 61.785156 41.964844 C 63.078125 41.964844 64.027344 42.457031 64.632812 43.4375 C 65.289062 44.503906 65.617188 46.199219 65.617188 48.519531 C 65.617188 52.667969 64.378906 54.738281 61.902344 54.738281 C 60.609375 54.742188 59.660156 54.25 59.050781 53.261719 M 54.210938 52.003906 C 54.210938 53.390625 53.707031 54.527344 52.703125 55.414062 C 51.695312 56.300781 50.34375 56.746094 48.652344 56.746094 C 47.070312 56.746094 45.539062 56.234375 44.054688 55.222656 L 44.75 53.816406 C 46.027344 54.464844 47.183594 54.785156 48.222656 54.785156 C 49.195312 54.785156 49.957031 54.566406 50.511719 54.136719 C 51.0625 53.699219 51.390625 53.089844 51.390625 52.320312 C 51.390625 51.351562 50.71875 50.519531 49.492188 49.828125 C 48.359375 49.199219 46.089844 47.882812 46.089844 47.882812 C 44.863281 46.980469 44.246094 46.007812 44.246094 44.410156 C 44.246094 43.085938 44.703125 42.015625 45.625 41.203125 C 46.542969 40.386719 47.726562 39.980469 49.183594 39.980469 C 50.683594 39.980469 52.046875 40.386719 53.277344 41.191406 L 52.652344 42.59375 C 51.601562 42.140625 50.566406 41.917969 49.539062 41.917969 C 48.710938 41.917969 48.070312 42.117188 47.625 42.523438 C 47.175781 42.925781 46.902344 43.441406 46.902344 44.070312 C 46.902344 45.039062 47.585938 45.878906 48.847656 46.585938 C 49.996094 47.214844 52.320312 48.550781 52.320312 48.550781 C 53.582031 49.457031 54.210938 50.417969 54.210938 52.003906 "/>
<path style=" stroke:none;fill-rule:nonzero;fill:rgb(36.470588%,52.941176%,63.137255%);fill-opacity:1;" d="M 81.636719 34.726562 C 80.070312 34.6875 78.859375 34.847656 77.84375 35.28125 C 77.550781 35.398438 77.085938 35.398438 77.042969 35.773438 C 77.203125 35.929688 77.21875 36.1875 77.359375 36.40625 C 77.59375 36.800781 78 37.332031 78.375 37.609375 C 78.785156 37.925781 79.195312 38.238281 79.625 38.515625 C 80.386719 38.988281 81.246094 39.265625 81.988281 39.738281 C 82.417969 40.015625 82.847656 40.371094 83.28125 40.667969 C 83.492188 40.824219 83.628906 41.082031 83.90625 41.179688 L 83.90625 41.121094 C 83.765625 40.941406 83.726562 40.6875 83.59375 40.488281 L 83.003906 39.917969 C 82.4375 39.148438 81.734375 38.476562 80.972656 37.925781 C 80.347656 37.488281 78.980469 36.898438 78.726562 36.167969 L 78.683594 36.128906 C 79.117188 36.089844 79.625 35.929688 80.035156 35.808594 C 80.699219 35.632812 81.304688 35.671875 81.988281 35.496094 C 82.300781 35.417969 82.613281 35.316406 82.925781 35.21875 L 82.925781 35.042969 C 82.574219 34.6875 82.320312 34.214844 81.949219 33.878906 C 80.953125 33.011719 79.859375 32.160156 78.726562 31.449219 C 78.117188 31.054688 77.335938 30.800781 76.691406 30.464844 C 76.457031 30.34375 76.066406 30.285156 75.929688 30.089844 C 75.578125 29.65625 75.382812 29.082031 75.128906 28.570312 C 74.5625 27.484375 74.015625 26.28125 73.527344 25.132812 C 73.171875 24.363281 72.960938 23.597656 72.527344 22.886719 C 70.515625 19.53125 68.328125 17.5 64.964844 15.503906 C 64.242188 15.089844 63.382812 14.914062 62.464844 14.695312 L 61 14.617188 C 60.6875 14.476562 60.375 14.101562 60.101562 13.925781 C 58.984375 13.214844 56.113281 11.675781 55.292969 13.707031 C 54.765625 14.992188 56.074219 16.253906 56.523438 16.90625 C 56.855469 17.359375 57.289062 17.875 57.519531 18.386719 C 57.65625 18.722656 57.695312 19.078125 57.832031 19.433594 C 58.144531 20.300781 58.4375 21.265625 58.851562 22.078125 C 59.0625 22.492188 59.296875 22.925781 59.574219 23.300781 C 59.730469 23.519531 60.003906 23.613281 60.0625 23.972656 C 59.789062 24.363281 59.769531 24.957031 59.613281 25.449219 C 58.910156 27.679688 59.183594 30.441406 60.179688 32.082031 C 60.492188 32.574219 61.234375 33.660156 62.230469 33.246094 C 63.113281 32.890625 62.917969 31.765625 63.167969 30.777344 C 63.226562 30.539062 63.1875 30.382812 63.304688 30.226562 L 63.304688 30.265625 C 63.578125 30.820312 63.855469 31.351562 64.105469 31.902344 C 64.714844 32.871094 65.769531 33.878906 66.648438 34.546875 C 67.117188 34.902344 67.488281 35.515625 68.074219 35.734375 L 68.074219 35.671875 L 68.035156 35.671875 C 67.917969 35.496094 67.742188 35.417969 67.585938 35.28125 C 67.234375 34.925781 66.84375 34.488281 66.570312 34.097656 C 65.75 32.992188 65.027344 31.765625 64.382812 30.503906 C 64.066406 29.890625 63.796875 29.21875 63.542969 28.609375 C 63.425781 28.371094 63.425781 28.015625 63.226562 27.898438 C 62.933594 28.332031 62.503906 28.707031 62.292969 29.238281 C 61.917969 30.089844 61.878906 31.132812 61.742188 32.222656 L 61.664062 32.257812 C 61.042969 32.101562 60.828125 31.449219 60.589844 30.898438 C 60.003906 29.496094 59.90625 27.246094 60.414062 25.628906 C 60.550781 25.214844 61.136719 23.914062 60.902344 23.519531 C 60.785156 23.140625 60.394531 22.925781 60.179688 22.628906 C 59.929688 22.253906 59.652344 21.78125 59.476562 21.367188 C 59.007812 20.261719 58.769531 19.035156 58.265625 17.933594 C 58.03125 17.417969 57.621094 16.886719 57.289062 16.410156 C 56.917969 15.878906 56.507812 15.503906 56.210938 14.875 C 56.117188 14.65625 55.980469 14.300781 56.136719 14.066406 C 56.171875 13.90625 56.253906 13.847656 56.410156 13.808594 C 56.660156 13.589844 57.386719 13.867188 57.640625 13.984375 C 58.363281 14.28125 58.96875 14.558594 59.574219 14.972656 C 59.847656 15.167969 60.140625 15.542969 60.492188 15.644531 L 60.902344 15.644531 C 61.527344 15.78125 62.230469 15.679688 62.820312 15.859375 C 63.855469 16.195312 64.792969 16.6875 65.632812 17.222656 C 68.191406 18.859375 70.304688 21.1875 71.730469 23.972656 C 71.964844 24.425781 72.0625 24.839844 72.277344 25.3125 C 72.6875 26.28125 73.195312 27.265625 73.605469 28.214844 C 74.015625 29.140625 74.40625 30.089844 74.992188 30.859375 C 75.285156 31.273438 76.460938 31.488281 76.988281 31.707031 C 77.378906 31.882812 77.984375 32.042969 78.335938 32.257812 C 79 32.671875 79.664062 33.148438 80.289062 33.601562 C 80.601562 33.839844 81.578125 34.332031 81.636719 34.726562 M 61.699219 17.578125 C 61.429688 17.574219 61.164062 17.605469 60.902344 17.675781 L 60.902344 17.714844 L 60.9375 17.714844 C 61.097656 18.03125 61.371094 18.25 61.566406 18.523438 C 61.722656 18.839844 61.859375 19.15625 62.011719 19.472656 L 62.050781 19.433594 C 62.328125 19.234375 62.464844 18.917969 62.464844 18.445312 C 62.34375 18.304688 62.328125 18.167969 62.226562 18.03125 C 62.113281 17.832031 61.859375 17.734375 61.699219 17.578125 "/>
<path style=" stroke:none;fill-rule:nonzero;fill:rgb(97.254902%,59.607843%,11.372549%);fill-opacity:1;" d="M 83.496094 56.527344 L 83.902344 56.527344 L 83.902344 54.527344 L 83.292969 54.527344 L 82.800781 55.894531 L 82.261719 54.527344 L 81.675781 54.527344 L 81.675781 56.527344 L 82.058594 56.527344 L 82.058594 55.007812 L 82.082031 55.007812 L 82.644531 56.527344 L 82.933594 56.527344 L 83.496094 55.007812 Z M 80.234375 56.527344 L 80.664062 56.527344 L 80.664062 54.867188 L 81.226562 54.867188 L 81.226562 54.527344 L 79.652344 54.527344 L 79.652344 54.867188 L 80.234375 54.867188 Z M 80.234375 56.527344 "/>
</g>
</svg>
