<?xml version="1.0" encoding="UTF-8"?>
<svg xmlns="http://www.w3.org/2000/svg" xmlns:xlink="http://www.w3.org/1999/xlink" width="93pt" height="50pt" viewBox="0 0 132 70" version="1.1">
<defs>
<radialGradient id="radial0" gradientUnits="userSpaceOnUse" cx="0.837" cy="-125.811" fx="0.837" fy="-125.811" r="363.057" gradientTransform="matrix(0.238734,0,0,0.240074,39.42675,42.476)">
<stop offset="0" style="stop-color:rgb(100%,100%,100%);stop-opacity:1;"/>
<stop offset="0.5" style="stop-color:rgb(29.803922%,41.960784%,59.215686%);stop-opacity:1;"/>
<stop offset="1" style="stop-color:rgb(13.72549%,12.156863%,12.54902%);stop-opacity:1;"/>
</radialGradient>
</defs>
<g id="surface1">
<path style=" stroke:none;fill-rule:nonzero;fill:url(#radial0);" d="M 132 34.894531 C 132 15.625 102.449219 0 66 0 C 29.550781 0 0 15.625 0 34.894531 C 0 54.167969 29.550781 69.792969 66 69.792969 C 102.449219 69.792969 132 54.167969 132 34.894531 Z M 132 34.894531 "/>
<path style=" stroke:none;fill-rule:nonzero;fill:rgb(38.039216%,50.588235%,71.372549%);fill-opacity:1;" d="M 129.421875 34.894531 C 129.421875 17.054688 101.027344 2.59375 66 2.59375 C 30.972656 2.59375 2.578125 17.054688 2.578125 34.894531 C 2.578125 52.738281 30.972656 67.199219 66 67.199219 C 101.027344 67.199219 129.421875 52.738281 129.421875 34.894531 Z M 129.421875 34.894531 "/>
<path style=" stroke:none;fill-rule:nonzero;fill:rgb(100%,100%,100%);fill-opacity:1;" d="M 78.839844 45.371094 L 81.984375 29.089844 C 82.707031 25.40625 82.085938 22.660156 80.230469 20.949219 C 78.425781 19.289062 75.332031 18.460938 70.796875 18.460938 L 65.328125 18.460938 L 66.875 10.371094 C 66.929688 10.058594 66.875 9.75 66.671875 9.488281 C 66.464844 9.230469 66.207031 9.125 65.898438 9.125 L 58.367188 9.125 C 57.851562 9.125 57.441406 9.488281 57.335938 9.957031 L 53.984375 27.222656 C 53.675781 25.25 52.953125 23.59375 51.71875 22.246094 C 49.5 19.703125 46.046875 18.40625 41.351562 18.40625 L 26.863281 18.40625 C 26.347656 18.40625 25.9375 18.769531 25.832031 19.238281 L 19.078125 54.289062 C 19.027344 54.601562 19.078125 54.910156 19.285156 55.171875 C 19.492188 55.429688 19.75 55.535156 20.058594 55.535156 L 27.636719 55.535156 C 28.152344 55.535156 28.566406 55.171875 28.667969 54.703125 L 30.320312 46.25 L 35.9375 46.25 C 38.878906 46.25 41.40625 45.941406 43.3125 45.320312 C 45.324219 44.644531 47.128906 43.554688 48.726562 42.050781 C 50.015625 40.859375 51.097656 39.511719 51.921875 38.058594 L 50.582031 45.058594 C 50.53125 45.371094 50.582031 45.679688 50.789062 45.941406 C 50.996094 46.199219 51.253906 46.304688 51.5625 46.304688 L 59.089844 46.304688 C 59.605469 46.304688 60.019531 45.941406 60.121094 45.472656 L 63.835938 26.289062 L 68.992188 26.289062 C 71.207031 26.289062 71.828125 26.703125 72.03125 26.910156 C 72.1875 27.066406 72.496094 27.6875 72.136719 29.605469 L 69.144531 45.109375 C 69.09375 45.421875 69.144531 45.734375 69.351562 45.992188 C 69.558594 46.25 69.816406 46.355469 70.125 46.355469 L 77.859375 46.355469 C 78.324219 46.199219 78.734375 45.835938 78.839844 45.371094 Z M 43.984375 31.890625 C 43.519531 34.324219 42.640625 36.089844 41.351562 37.074219 C 40.0625 38.058594 37.949219 38.578125 35.164062 38.578125 L 31.8125 38.578125 L 34.238281 26.03125 L 38.570312 26.03125 C 41.765625 26.03125 43.054688 26.703125 43.570312 27.273438 C 44.242188 28.105469 44.394531 29.710938 43.984375 31.890625 Z M 111.015625 22.246094 C 108.796875 19.703125 105.34375 18.40625 100.648438 18.40625 L 86.058594 18.40625 C 85.542969 18.40625 85.128906 18.769531 85.027344 19.238281 L 78.273438 54.238281 C 78.21875 54.546875 78.273438 54.859375 78.476562 55.117188 C 78.683594 55.378906 78.941406 55.480469 79.25 55.480469 L 86.832031 55.480469 C 87.347656 55.480469 87.757812 55.117188 87.863281 54.652344 L 89.511719 46.199219 L 95.132812 46.199219 C 98.070312 46.199219 100.597656 45.890625 102.507812 45.265625 C 104.515625 44.59375 106.320312 43.503906 107.921875 42 C 109.261719 40.753906 110.394531 39.355469 111.21875 37.851562 C 112.046875 36.347656 112.664062 34.6875 113.023438 32.875 C 113.902344 28.363281 113.230469 24.835938 111.015625 22.246094 Z M 103.125 31.890625 C 102.660156 34.324219 101.785156 36.089844 100.496094 37.074219 C 99.207031 38.058594 97.09375 38.578125 94.308594 38.578125 L 90.957031 38.578125 L 93.378906 26.03125 L 97.710938 26.03125 C 100.90625 26.03125 102.195312 26.703125 102.710938 27.273438 C 103.433594 28.105469 103.589844 29.710938 103.125 31.890625 Z M 103.125 31.890625 "/>
<path style=" stroke:none;fill-rule:nonzero;fill:rgb(0%,0%,1.568627%);fill-opacity:1;" d="M 38.570312 24.992188 C 41.457031 24.992188 43.363281 25.511719 44.34375 26.601562 C 45.324219 27.6875 45.53125 29.503906 45.015625 32.097656 C 44.5 34.792969 43.46875 36.761719 41.972656 37.902344 C 40.476562 39.042969 38.207031 39.613281 35.164062 39.613281 L 30.578125 39.613281 L 33.414062 24.992188 Z M 20.109375 54.445312 L 27.6875 54.445312 L 29.492188 45.164062 L 35.992188 45.164062 C 38.878906 45.164062 41.199219 44.851562 43.054688 44.230469 C 44.910156 43.605469 46.5625 42.621094 48.109375 41.171875 C 49.398438 39.976562 50.429688 38.679688 51.203125 37.28125 C 51.976562 35.882812 52.542969 34.324219 52.851562 32.613281 C 53.675781 28.464844 53.058594 25.25 51.046875 22.917969 C 49.035156 20.585938 45.839844 19.445312 41.457031 19.445312 L 26.863281 19.445312 Z M 58.421875 10.164062 L 65.949219 10.164062 L 64.144531 19.445312 L 70.847656 19.445312 C 75.074219 19.445312 77.960938 20.171875 79.5625 21.675781 C 81.160156 23.179688 81.625 25.5625 81.003906 28.882812 L 77.859375 45.164062 L 70.226562 45.164062 L 73.21875 29.660156 C 73.578125 27.894531 73.425781 26.703125 72.859375 26.082031 C 72.289062 25.460938 71 25.097656 69.09375 25.097656 L 63.0625 25.097656 L 59.195312 45.164062 L 51.664062 45.164062 Z M 97.710938 24.992188 C 100.597656 24.992188 102.507812 25.511719 103.484375 26.601562 C 104.464844 27.6875 104.671875 29.503906 104.15625 32.097656 C 103.640625 34.792969 102.609375 36.761719 101.113281 37.902344 C 99.617188 39.042969 97.351562 39.613281 94.308594 39.613281 L 89.71875 39.613281 L 92.554688 24.992188 Z M 79.25 54.445312 L 86.832031 54.445312 L 88.636719 45.164062 L 95.132812 45.164062 C 98.019531 45.164062 100.339844 44.851562 102.195312 44.230469 C 104.054688 43.605469 105.703125 42.621094 107.25 41.171875 C 108.539062 39.976562 109.570312 38.679688 110.34375 37.28125 C 111.117188 35.882812 111.683594 34.324219 111.992188 32.613281 C 112.820312 28.464844 112.199219 25.25 110.1875 22.917969 C 108.179688 20.585938 104.980469 19.445312 100.597656 19.445312 L 86.007812 19.445312 Z M 79.25 54.445312 "/>
</g>
</svg>
