<?xml version="1.0" encoding="UTF-8"?>
<svg xmlns="http://www.w3.org/2000/svg" xmlns:xlink="http://www.w3.org/1999/xlink" width="70pt" height="70pt" viewBox="0 0 70 70" version="1.1">
<g id="surface1">
<path style=" stroke:none;fill-rule:nonzero;fill:rgb(23.529412%,47.843137%,78.039216%);fill-opacity:1;" d="M 35.257812 51.105469 C 32.6875 51.105469 31.207031 53.625 31.207031 56.734375 C 31.179688 59.898438 32.714844 62.320312 35.234375 62.320312 C 37.777344 62.320312 39.261719 59.921875 39.261719 56.664062 C 39.257812 53.625 37.828125 51.105469 35.257812 51.105469 Z M 35.257812 51.105469 "/>
<path style=" stroke:none;fill-rule:nonzero;fill:rgb(23.529412%,47.843137%,78.039216%);fill-opacity:1;" d="M 60.378906 16.773438 C 60.375 16.453125 60.273438 16.136719 60.050781 15.886719 L 46.554688 0.46875 C 46.550781 0.464844 46.546875 0.464844 46.542969 0.460938 C 46.464844 0.371094 46.371094 0.296875 46.273438 0.230469 C 46.242188 0.210938 46.210938 0.195312 46.179688 0.175781 C 46.09375 0.128906 46.003906 0.0898438 45.910156 0.0625 C 45.886719 0.0546875 45.863281 0.046875 45.835938 0.0390625 C 45.734375 0.015625 45.628906 0 45.523438 0 L 12.351562 0 C 10.839844 0 9.609375 1.230469 9.609375 2.746094 L 9.609375 67.253906 C 9.609375 68.769531 10.839844 70 12.351562 70 L 57.648438 70 C 59.160156 70 60.390625 68.769531 60.390625 67.253906 L 60.390625 16.929688 C 60.390625 16.875 60.382812 16.824219 60.378906 16.773438 Z M 18.730469 65.285156 C 16.828125 65.285156 14.949219 64.789062 14.011719 64.269531 L 14.777344 61.15625 C 15.789062 61.675781 17.347656 62.195312 18.953125 62.195312 C 20.679688 62.195312 21.59375 61.476562 21.59375 60.390625 C 21.59375 59.351562 20.804688 58.761719 18.804688 58.046875 C 16.039062 57.082031 14.234375 55.550781 14.234375 53.128906 C 14.234375 50.289062 16.605469 48.113281 20.535156 48.113281 C 22.410156 48.113281 23.796875 48.507812 24.78125 48.953125 L 23.941406 51.992188 C 23.277344 51.671875 22.089844 51.203125 20.460938 51.203125 C 18.828125 51.203125 18.039062 51.945312 18.039062 52.808594 C 18.039062 53.871094 18.976562 54.339844 21.125 55.15625 C 24.066406 56.242188 25.449219 57.773438 25.449219 60.121094 C 25.449219 62.910156 23.300781 65.285156 18.730469 65.285156 Z M 42.222656 67.902344 C 39.851562 67.210938 37.875 66.492188 35.652344 65.554688 C 35.28125 65.40625 34.886719 65.332031 34.492188 65.308594 C 30.738281 65.0625 27.230469 62.292969 27.230469 56.859375 C 27.230469 51.871094 30.390625 48.113281 35.355469 48.113281 C 40.445312 48.113281 43.238281 51.96875 43.238281 56.511719 C 43.238281 60.292969 41.484375 62.960938 39.285156 63.949219 L 39.285156 64.046875 C 40.570312 64.417969 42.003906 64.714844 43.308594 64.984375 Z M 56.109375 65.035156 L 45.707031 65.035156 L 45.707031 48.386719 L 49.488281 48.386719 L 49.488281 61.875 L 56.109375 61.875 Z M 12.351562 46.609375 L 12.351562 2.746094 L 44.152344 2.746094 L 44.152344 16.789062 C 44.152344 17.546875 44.765625 18.164062 45.523438 18.164062 L 57.648438 18.164062 L 57.648438 46.609375 Z M 12.351562 46.609375 "/>
<path style=" stroke:none;fill-rule:nonzero;fill:rgb(23.529412%,47.843137%,78.039216%);fill-opacity:1;" d="M 42.460938 21.753906 C 42.523438 21.585938 42.566406 21.417969 42.566406 21.238281 C 42.566406 19.027344 37.789062 17.835938 33.296875 17.835938 C 28.808594 17.835938 24.035156 19.027344 24.035156 21.238281 C 24.035156 21.417969 24.078125 21.589844 24.136719 21.753906 L 24.113281 21.796875 C 23.910156 22.171875 23.808594 22.546875 23.808594 22.917969 L 23.808594 25.648438 C 23.808594 26.070312 23.941406 26.476562 24.175781 26.855469 L 24.144531 26.910156 C 23.921875 27.296875 23.808594 27.691406 23.808594 28.078125 L 23.808594 30.8125 C 23.808594 31.222656 23.933594 31.613281 24.15625 31.984375 L 24.144531 32 C 23.921875 32.386719 23.808594 32.78125 23.808594 33.167969 L 23.808594 35.902344 C 23.808594 38.332031 27.976562 40.238281 33.296875 40.238281 C 38.625 40.238281 42.792969 38.332031 42.792969 35.902344 L 42.792969 33.167969 C 42.792969 32.78125 42.679688 32.386719 42.453125 32 L 42.445312 31.984375 C 42.664062 31.613281 42.792969 31.222656 42.792969 30.8125 L 42.792969 28.078125 C 42.792969 27.691406 42.679688 27.296875 42.453125 26.910156 L 42.425781 26.859375 C 42.660156 26.476562 42.792969 26.070312 42.792969 25.648438 L 42.792969 22.914062 C 42.792969 22.546875 42.691406 22.167969 42.484375 21.796875 Z M 41.777344 35.902344 C 41.777344 37.472656 38.296875 39.21875 33.296875 39.21875 C 28.304688 39.21875 24.824219 37.472656 24.824219 35.902344 L 24.824219 33.332031 C 26.382812 34.757812 29.589844 35.671875 33.296875 35.671875 C 37.011719 35.671875 40.21875 34.757812 41.777344 33.332031 Z M 41.777344 30.8125 C 41.777344 32.382812 38.296875 34.128906 33.296875 34.128906 C 28.304688 34.128906 24.824219 32.382812 24.824219 30.8125 L 24.824219 28.242188 C 26.382812 29.667969 29.589844 30.578125 33.296875 30.578125 C 37.011719 30.578125 40.21875 29.667969 41.777344 28.238281 Z M 41.777344 25.648438 C 41.777344 27.21875 38.296875 28.964844 33.296875 28.964844 C 28.304688 28.964844 24.824219 27.21875 24.824219 25.648438 L 24.824219 23.375 C 26.347656 24.664062 29.878906 25.335938 33.296875 25.335938 C 36.722656 25.335938 40.25 24.664062 41.777344 23.375 Z M 41.777344 25.648438 "/>
</g>
</svg>
